<?xml version="1.0" encoding="UTF-8" standalone="no"?>
<!DOCTYPE svg PUBLIC "-//W3C//DTD SVG 1.1//EN"
 "http://www.w3.org/Graphics/SVG/1.1/DTD/svg11.dtd">
<!-- Generated by graphviz version 2.42.4 (0)
 -->
<!-- Title: UseCase Pages: 1 -->
<svg width="453pt" height="897pt"
 viewBox="0.00 0.00 452.87 896.60" xmlns="http://www.w3.org/2000/svg" xmlns:xlink="http://www.w3.org/1999/xlink">
<g id="graph0" class="graph" transform="scale(1 1) rotate(0) translate(28.8 867.8)">
<title>UseCase</title>
<polygon fill="white" stroke="transparent" points="-28.8,28.8 -28.8,-867.8 424.07,-867.8 424.07,28.8 -28.8,28.8"/>
<g id="clust1" class="cluster">
<title>cluster_system</title>
<path fill="#fbfefc" stroke="#c8ddd0" d="M174,-8C174,-8 375.27,-8 375.27,-8 381.27,-8 387.27,-14 387.27,-20 387.27,-20 387.27,-819 387.27,-819 387.27,-825 381.27,-831 375.27,-831 375.27,-831 174,-831 174,-831 168,-831 162,-825 162,-819 162,-819 162,-20 162,-20 162,-14 168,-8 174,-8"/>
<text text-anchor="middle" x="274.63" y="-815.8" font-family="DejaVu Sans" font-size="14.00">FootballBookingSystem</text>
</g>
<!-- customer -->
<g id="node1" class="node">
<title>customer</title>
<text text-anchor="middle" x="49" y="-643.2" font-family="DejaVu Sans" font-size="11.00">👤 Khách hàng</text>
</g>
<!-- login -->
<g id="node4" class="node">
<title>login</title>
<ellipse fill="#ecf8f0" stroke="black" cx="274.63" cy="-510" rx="85.98" ry="18"/>
<text text-anchor="middle" x="274.63" y="-507.2" font-family="DejaVu Sans" font-size="11.00">Đăng nhập / đăng xuất</text>
</g>
<!-- customer&#45;&gt;login -->
<g id="edge1" class="edge">
<title>customer&#45;&gt;login</title>
<path fill="none" stroke="#557367" d="M65.21,-627.88C85.21,-605.17 122.45,-566.5 162,-544 176.19,-535.93 192.52,-529.57 208.22,-524.64"/>
<polygon fill="#557367" stroke="#557367" points="208.84,-526.65 213.97,-522.89 207.62,-522.63 208.84,-526.65"/>
</g>
<!-- search -->
<g id="node5" class="node">
<title>search</title>
<ellipse fill="#ecf8f0" stroke="black" cx="274.63" cy="-782" rx="59.56" ry="18"/>
<text text-anchor="middle" x="274.63" y="-779.2" font-family="DejaVu Sans" font-size="11.00">Tìm &amp; xem sân</text>
</g>
<!-- customer&#45;&gt;search -->
<g id="edge2" class="edge">
<title>customer&#45;&gt;search</title>
<path fill="none" stroke="#557367" d="M65.21,-664.12C85.21,-686.83 122.45,-725.5 162,-748 179.32,-757.85 199.82,-765.16 218.49,-770.41"/>
<polygon fill="#557367" stroke="#557367" points="218.4,-772.56 224.74,-772.12 219.51,-768.51 218.4,-772.56"/>
</g>
<!-- book -->
<g id="node6" class="node">
<title>book</title>
<ellipse fill="#ecf8f0" stroke="black" cx="274.63" cy="-714" rx="54.94" ry="18"/>
<text text-anchor="middle" x="274.63" y="-711.2" font-family="DejaVu Sans" font-size="11.00">Đặt / hủy sân</text>
</g>
<!-- customer&#45;&gt;book -->
<g id="edge3" class="edge">
<title>customer&#45;&gt;book</title>
<path fill="none" stroke="#557367" d="M98.25,-660.67C136.64,-672.35 190.01,-688.57 227.76,-700.05"/>
<polygon fill="#557367" stroke="#557367" points="227.33,-702.12 233.68,-701.85 228.55,-698.1 227.33,-702.12"/>
</g>
<!-- service -->
<g id="node7" class="node">
<title>service</title>
<ellipse fill="#ecf8f0" stroke="black" cx="274.63" cy="-646" rx="52.84" ry="18"/>
<text text-anchor="middle" x="274.63" y="-643.2" font-family="DejaVu Sans" font-size="11.00">Chọn dịch vụ</text>
</g>
<!-- customer&#45;&gt;service -->
<g id="edge4" class="edge">
<title>customer&#45;&gt;service</title>
<path fill="none" stroke="#557367" d="M98.25,-646C132.6,-646 178.94,-646 215.35,-646"/>
<polygon fill="#557367" stroke="#557367" points="215.57,-648.1 221.57,-646 215.57,-643.9 215.57,-648.1"/>
</g>
<!-- pay -->
<g id="node8" class="node">
<title>pay</title>
<ellipse fill="#ecf8f0" stroke="black" cx="274.63" cy="-578" rx="47.51" ry="18"/>
<text text-anchor="middle" x="274.63" y="-575.2" font-family="DejaVu Sans" font-size="11.00">Thanh toán</text>
</g>
<!-- customer&#45;&gt;pay -->
<g id="edge5" class="edge">
<title>customer&#45;&gt;pay</title>
<path fill="none" stroke="#557367" d="M98.25,-631.33C137.74,-619.32 193.07,-602.5 230.96,-590.98"/>
<polygon fill="#557367" stroke="#557367" points="231.76,-592.93 236.89,-589.17 230.53,-588.91 231.76,-592.93"/>
</g>
<!-- owner -->
<g id="node2" class="node">
<title>owner</title>
<text text-anchor="middle" x="49" y="-405.2" font-family="DejaVu Sans" font-size="11.00">👤 Chủ sân</text>
</g>
<!-- owner&#45;&gt;login -->
<g id="edge6" class="edge">
<title>owner&#45;&gt;login</title>
<path fill="none" stroke="#557367" d="M75.68,-426.15C97.75,-441.12 130.85,-462.07 162,-476 177.98,-483.15 195.88,-489.34 212.6,-494.41"/>
<polygon fill="#557367" stroke="#557367" points="212.35,-496.53 218.7,-496.23 213.55,-492.51 212.35,-496.53"/>
</g>
<!-- ownerPitch -->
<g id="node9" class="node">
<title>ownerPitch</title>
<ellipse fill="#f4f8ec" stroke="black" cx="274.63" cy="-374" rx="71.62" ry="18"/>
<text text-anchor="middle" x="274.63" y="-371.2" font-family="DejaVu Sans" font-size="11.00">Quản lý sân &amp; ảnh</text>
</g>
<!-- owner&#45;&gt;ownerPitch -->
<g id="edge7" class="edge">
<title>owner&#45;&gt;ownerPitch</title>
<path fill="none" stroke="#557367" d="M88.19,-402.19C120.64,-397.26 167.97,-390.06 206.69,-384.18"/>
<polygon fill="#557367" stroke="#557367" points="207.22,-386.22 212.83,-383.24 206.58,-382.07 207.22,-386.22"/>
</g>
<!-- ownerBooking -->
<g id="node10" class="node">
<title>ownerBooking</title>
<ellipse fill="#f4f8ec" stroke="black" cx="274.63" cy="-306" rx="55.15" ry="18"/>
<text text-anchor="middle" x="274.63" y="-303.2" font-family="DejaVu Sans" font-size="11.00">Xác nhận đơn</text>
</g>
<!-- owner&#45;&gt;ownerBooking -->
<g id="edge8" class="edge">
<title>owner&#45;&gt;ownerBooking</title>
<path fill="none" stroke="#557367" d="M75.68,-389.85C97.75,-374.88 130.85,-353.93 162,-340 181.61,-331.23 204.12,-323.89 223.78,-318.3"/>
<polygon fill="#557367" stroke="#557367" points="224.56,-320.26 229.78,-316.62 223.43,-316.22 224.56,-320.26"/>
</g>
<!-- ownerDash -->
<g id="node11" class="node">
<title>ownerDash</title>
<ellipse fill="#f4f8ec" stroke="black" cx="274.63" cy="-442" rx="73.93" ry="18"/>
<text text-anchor="middle" x="274.63" y="-439.2" font-family="DejaVu Sans" font-size="11.00">Theo dõi doanh thu</text>
</g>
<!-- owner&#45;&gt;ownerDash -->
<g id="edge9" class="edge">
<title>owner&#45;&gt;ownerDash</title>
<path fill="none" stroke="#557367" d="M88.19,-413.81C120.28,-418.69 166.94,-425.78 205.42,-431.63"/>
<polygon fill="#557367" stroke="#557367" points="205.27,-433.73 211.52,-432.56 205.91,-429.58 205.27,-433.73"/>
</g>
<!-- admin -->
<g id="node3" class="node">
<title>admin</title>
<text text-anchor="middle" x="49" y="-167.2" font-family="DejaVu Sans" font-size="11.00">👤 Admin</text>
</g>
<!-- admin&#45;&gt;login -->
<g id="edge10" class="edge">
<title>admin&#45;&gt;login</title>
<path fill="none" stroke="#557367" d="M54.4,-188.23C69.08,-247.65 117.93,-434.3 162,-476 172.24,-485.69 185.15,-492.62 198.54,-497.58"/>
<polygon fill="#557367" stroke="#557367" points="197.94,-499.59 204.29,-499.59 199.32,-495.63 197.94,-499.59"/>
</g>
<!-- accounts -->
<g id="node12" class="node">
<title>accounts</title>
<ellipse fill="#fff5e5" stroke="black" cx="274.63" cy="-238" rx="68.61" ry="18"/>
<text text-anchor="middle" x="274.63" y="-235.2" font-family="DejaVu Sans" font-size="11.00">Quản lý tài khoản</text>
</g>
<!-- admin&#45;&gt;accounts -->
<g id="edge11" class="edge">
<title>admin&#45;&gt;accounts</title>
<path fill="none" stroke="#557367" d="M83.48,-180.18C120.49,-191.43 180.5,-209.68 223.2,-222.67"/>
<polygon fill="#557367" stroke="#557367" points="222.76,-224.73 229.11,-224.46 223.98,-220.71 222.76,-224.73"/>
</g>
<!-- areas -->
<g id="node13" class="node">
<title>areas</title>
<ellipse fill="#fff5e5" stroke="black" cx="274.63" cy="-170" rx="63.98" ry="18"/>
<text text-anchor="middle" x="274.63" y="-167.2" font-family="DejaVu Sans" font-size="11.00">Quản lý khu vực</text>
</g>
<!-- admin&#45;&gt;areas -->
<g id="edge12" class="edge">
<title>admin&#45;&gt;areas</title>
<path fill="none" stroke="#557367" d="M83.48,-170C115.29,-170 164.09,-170 204.29,-170"/>
<polygon fill="#557367" stroke="#557367" points="204.66,-172.1 210.66,-170 204.66,-167.9 204.66,-172.1"/>
</g>
<!-- monitor -->
<g id="node14" class="node">
<title>monitor</title>
<ellipse fill="#fff5e5" stroke="black" cx="274.63" cy="-102" rx="104.77" ry="18"/>
<text text-anchor="middle" x="274.63" y="-99.2" font-family="DejaVu Sans" font-size="11.00">Theo dõi sân / đơn / hóa đơn</text>
</g>
<!-- admin&#45;&gt;monitor -->
<g id="edge13" class="edge">
<title>admin&#45;&gt;monitor</title>
<path fill="none" stroke="#557367" d="M83.48,-159.82C118.51,-149.17 174.15,-132.25 216.21,-119.46"/>
<polygon fill="#557367" stroke="#557367" points="216.92,-121.44 222.05,-117.68 215.7,-117.42 216.92,-121.44"/>
</g>
<!-- report -->
<g id="node15" class="node">
<title>report</title>
<ellipse fill="#fff5e5" stroke="black" cx="274.63" cy="-34" rx="84.38" ry="18"/>
<text text-anchor="middle" x="274.63" y="-31.2" font-family="DejaVu Sans" font-size="11.00">Xem báo cáo thống kê</text>
</g>
<!-- admin&#45;&gt;report -->
<g id="edge14" class="edge">
<title>admin&#45;&gt;report</title>
<path fill="none" stroke="#557367" d="M65.21,-151.88C85.21,-129.17 122.45,-90.5 162,-68 176.35,-59.84 192.88,-53.43 208.74,-48.48"/>
<polygon fill="#557367" stroke="#557367" points="209.41,-50.47 214.55,-46.72 208.2,-46.45 209.41,-50.47"/>
</g>
</g>
</svg>
